Coordinates
version=1
nRows=60
nColumns=12
inDegrees=yes

Units are S.I. units (second, meters, Newtons, ...)
Angles are in degrees

endheader
time	SC_y	SC_z	SC_x	AC_y	AC_z	AC_x	GH_y	GH_z	GH_yy	EL_x	PS_y
       0.0              -47.75          18.81          76.93          31.63         -14.19          9.584          178.9          65.82          34.14          70.46          98.87
   0.04545              -47.75           18.8          76.93          31.63         -14.19          9.583          178.9          65.82          34.16          70.46          98.86
   0.09089              -47.74           18.8          76.93          31.64         -14.19          9.581          178.9          65.82          34.18          70.46          98.85
    0.1363              -47.74           18.8          76.93          31.64         -14.19           9.58          178.9          65.82           34.2          70.45          98.84
    0.1818              -47.73          18.79          76.93          31.64         -14.19          9.578          178.9          65.82          34.22          70.45          98.83
    0.2272              -47.73          18.79          76.93          31.65         -14.19          9.576          178.9          65.82          34.25          70.44          98.82
    0.2727              -47.72          18.78          76.93          31.65         -14.19          9.574          178.8          65.82          34.27          70.44          98.81
    0.3181              -47.71          18.78          76.94          31.66         -14.19          9.572          178.8          65.81           34.3          70.43           98.8
    0.3636              -47.71          18.77          76.94          31.66         -14.19           9.57          178.8          65.81          34.33          70.42          98.78
     0.409               -47.7          18.77          76.94          31.67         -14.19          9.567          178.7          65.81          34.36          70.42          98.77
    0.4545              -47.69          18.76          76.94          31.68         -14.19          9.565          178.7          65.81           34.4          70.41          98.76
    0.4999              -47.68          18.75          76.94          31.68         -14.19          9.562          178.7           65.8          34.43           70.4          98.74
    0.5453              -47.67          18.75          76.94          31.69         -14.19          9.559          178.7           65.8          34.47          70.39          98.72
    0.5908              -47.66          18.74          76.94           31.7         -14.19          9.556          178.6           65.8          34.52          70.39           98.7
    0.6362              -47.65          18.73          76.95          31.71          -14.2          9.552          178.6          65.79          34.56          70.38          98.68
    0.6817              -47.64          18.72          76.95          31.71          -14.2          9.549          178.5          65.79          34.61          70.37          98.66
    0.7271              -47.62          18.71          76.95          31.72          -14.2          9.545          178.5          65.79          34.67          70.35          98.64
    0.7726              -47.61           18.7          76.95          31.74          -14.2           9.54          178.4          65.78          34.73          70.34          98.61
     0.818              -47.59          18.69          76.96          31.75          -14.2          9.535          178.4          65.78          34.79          70.33          98.59
    0.8635              -47.57          18.68          76.96          31.76          -14.2           9.53          178.3          65.77          34.86          70.31          98.56
    0.9089              -47.55          18.66          76.96          31.77          -14.2          9.524          178.2          65.77          34.94           70.3          98.52
    0.9544              -47.53          18.65          76.96          31.79          -14.2          9.518          178.2          65.76          35.03          70.28          98.49
    0.9998              -47.51          18.63          76.97          31.81          -14.2          9.511          178.1          65.75          35.12          70.26          98.44
     1.045              -47.48          18.61          76.97          31.83          -14.2          9.503          178.0          65.75          35.23          70.24           98.4
     1.091              -47.45          18.59          76.98          31.85          -14.2          9.494          177.9          65.74          35.34          70.21          98.35
     1.136              -47.42          18.56          76.98          31.87          -14.2          9.484          177.8          65.73          35.48          70.19          98.29
     1.182              -47.38          18.54          76.99           31.9          -14.2          9.473          177.6          65.72          35.62          70.16          98.23
     1.227              -47.34          18.51          76.99          31.93          -14.2          9.461          177.5          65.71          35.79          70.12          98.16
     1.272              -47.29          18.47           77.0          31.96         -14.21          9.447          177.3          65.69          35.97          70.08          98.08
     1.318              -47.24          18.43          77.01           32.0         -14.21          9.431          177.1          65.68          36.18          70.04          97.99
     1.363              -47.18          18.39          77.02          32.04         -14.21          9.413          176.9          65.66          36.42          69.99          97.89
     1.409              -47.11          18.34          77.03          32.09         -14.21          9.392          176.7          65.64           36.7          69.93          97.77
     1.454              -47.03          18.28          77.04          32.15         -14.21          9.368          176.4          65.62          37.02          69.87          97.63
       1.5              -46.94          18.21          77.06          32.22         -14.22          9.341          176.1          65.59          37.39          69.79          97.47
     1.545              -46.83          18.13          77.07           32.3         -14.22          9.308          175.7          65.56          37.82           69.7          97.29
     1.591               -46.7          18.04          77.09          32.39         -14.22           9.27          175.2          65.52          38.34          69.59          97.07
     1.636              -46.55          17.93          77.12           32.5         -14.23          9.224          174.7          65.48          38.94          69.47          96.81
     1.681              -46.36          17.79          77.15          32.64         -14.23           9.17          174.0          65.42          39.67          69.32          96.49
     1.727              -46.14          17.63          77.18           32.8         -14.24          9.104          173.3          65.36          40.55          69.13          96.12
     1.772              -45.87          17.44          77.22          32.99         -14.25          9.023          172.3          65.28          41.63          68.91          95.65
     1.818              -45.54          17.19          77.28          33.23         -14.26          8.923          171.1          65.19          42.96          68.64          95.08
     1.863              -45.12          16.89          77.34          33.54         -14.27          8.799          169.7          65.07          44.62          68.29          94.37
     1.909               -44.6          16.51          77.42          33.92         -14.28          8.643          167.8          64.91          46.71          67.86          93.48
     1.954              -43.93          16.02          77.53           34.4          -14.3          8.444          165.4          64.72          49.36          67.31          92.34
       2.0              -43.08           15.4          77.66          35.02         -14.33          8.189          162.4          64.48          52.76          66.61          90.88
     2.045              -41.98           14.6          77.83          35.81         -14.36          7.862          158.6          64.16          57.12           65.7          89.01
     2.091              -40.58          13.58          78.05          36.82          -14.4          7.445          153.6          63.76          62.69          64.55          86.63
     2.136              -38.82          12.29          78.32           38.1         -14.45           6.92          147.4          63.25          69.69           63.1          83.62
     2.181              -36.68          10.73          78.66          39.65         -14.52          6.281          139.8          62.63          78.22          61.33          79.97
     2.227              -34.19          8.916          79.05          41.45         -14.59           5.54          131.1          61.92          88.11          59.28          75.72
     2.272               -31.5          6.952          79.47           43.4         -14.67          4.737          121.6          61.14          98.82          57.06          71.13
     2.318              -28.81          4.989          79.89          45.35         -14.75          3.935          112.1          60.36          109.5          54.84          66.54
     2.363              -26.33          3.176          80.27          47.15         -14.82          3.194          103.3          59.65          119.4          52.79           62.3
     2.409              -24.18          1.612          80.61          48.71         -14.88          2.554          95.74          59.03          128.0          51.03          58.64
     2.454              -22.42         0.3289          80.88          49.98         -14.93          2.029          89.53          58.52          135.0          49.58          55.64
       2.5              -21.02        -0.6919           81.1          50.99         -14.97          1.612          84.59          58.12          140.5          48.42          53.25
     2.545              -19.93         -1.491          81.27          51.79         -15.01          1.285          80.72           57.8          144.9          47.52          51.38
      2.59              -19.08         -2.114          81.41          52.41         -15.03          1.031          77.71          57.56          148.3          46.81          49.93
     2.636              -18.41           -2.6          81.51          52.89         -15.05          0.832          75.35          57.36          150.9          46.26          48.79
     2.681              -17.88         -2.983          81.59          53.27         -15.06         0.6755           73.5          57.21          153.0          45.83          47.89
